<?xml version="1.0" encoding="UTF-8" standalone="no"?>
<!-- Created with Inkscape (http://www.inkscape.org/) -->
<svg xmlns:dc="http://purl.org/dc/elements/1.1/" xmlns:cc="http://web.resource.org/cc/" xmlns:rdf="http://www.w3.org/1999/02/22-rdf-syntax-ns#" xmlns:svg="http://www.w3.org/2000/svg" xmlns="http://www.w3.org/2000/svg" xmlns:sodipodi="http://inkscape.sourceforge.net/DTD/sodipodi-0.dtd" xmlns:inkscape="http://www.inkscape.org/namespaces/inkscape" id="svg1306" width="14cm" height="16cm">
<metadata id="metadata1311">
</metadata>
<defs id="defs1309"/>
<rect style="fill:#0000ff;fill-opacity:0.75;fill-rule:evenodd;stroke:#000000;stroke-width:1px;stroke-linecap:butt;stroke-linejoin:miter;stroke-opacity:1" id="rect8337" width="0" height="1.767767" x="435.57779" y="564.10498"/>
<g id="layer4" style="display:inline">
<path style="fill:none;fill-opacity:0.75;fill-rule:evenodd;stroke:#ffffff;stroke-width:8.36710644;stroke-linecap:butt;stroke-linejoin:miter;stroke-miterlimit:4;stroke-dasharray:none;stroke-opacity:1;display:inline" d="M 34.063614,89.707461 L 463.29442,87.857327 L 467.91975,24.027748 L 26.663083,25.877883 L 34.063614,89.707461 z " id="path2187"/>
<rect style="fill:#ffffff;fill-opacity:1;fill-rule:evenodd;stroke:#ffffff;stroke-width:0.74492818px;stroke-linecap:butt;stroke-linejoin:miter;stroke-opacity:1;display:inline" id="rect3954" width="56.023117" height="11.678619" x="218.11221" y="225.4222"/>
<path style="fill:#469951;fill-opacity:1;fill-rule:evenodd;stroke:#469951;stroke-width:0.76064599px;stroke-linecap:butt;stroke-linejoin:miter;stroke-opacity:1;display:inline" d="M 73.415353,427.70457 C 73.415353,427.70457 77.743657,430.6724 83.874235,430.557 C 90.01134,430.44147 98.655922,422.30038 110.30668,421.04892 C 121.95745,419.79746 141.12304,431.84911 152.33238,430.74716 C 163.54171,429.6452 173.68093,420.79204 185.04015,421.61941 C 196.39937,422.44677 203.92035,432.23341 219.07906,430.93732 C 234.23778,429.64122 234.64598,423.45521 248.93442,423.90134 C 263.22286,424.34748 266.81905,433.3452 281.45203,432.26845 C 296.08502,431.1917 301.09677,423.95543 312.63852,424.66199 C 324.18027,425.36855 327.11267,433.87906 343.82501,433.59958 C 360.53734,433.3201 363.58737,424.52288 381.28682,425.80296 C 398.98627,427.08303 401.60223,432.38077 409.62088,433.59958 C 417.63954,434.81839 421.60792,431.60415 420.65025,431.5078 L 419.88961,440.44539 C 416.21485,442.09389 416.9614,442.3756 409.62088,443.10765 C 398.65046,442.39421 395.9747,435.97851 379.76553,435.31103 C 364.87922,434.65073 359.54652,442.86401 343.25452,443.10765 C 325.61923,441.62482 326.27418,435.14793 312.06804,434.74055 C 294.18832,436.04413 295.22457,442.43009 279.36026,443.29782 C 264.1802,441.91202 260.5691,434.22718 248.55409,434.93071 C 237.01746,434.60688 231.36963,441.19926 220.02987,441.58636 C 204.7023,442.13832 199.37133,432.53217 186.37128,432.45861 C 175.07929,431.82479 166.98507,440.32888 153.85367,440.44539 C 137.28775,439.09351 127.73816,431.77684 114.6804,431.12748 C 98.252225,431.90999 96.741833,435.69136 87.106981,439.30442 C 78.111604,441.44194 78.532523,438.84025 74.175999,437.02249 L 73.415353,427.70457 z " id="path18934"/>
<g style="display:inline" id="g6254" transform="matrix(0.760646,0,0,0.760646,-37.94091,-80.94807)">
<path id="path14565" d="M 101.5,143.61911 L 89.625,143.61911 L 98.080806,215.73025 L 100.33081,215.73025 L 101.5,143.61911 z " style="fill:#fa1c2c;fill-opacity:1;fill-rule:evenodd;stroke:#fa1c2c;stroke-width:1.00690854px;stroke-linecap:butt;stroke-linejoin:miter;stroke-opacity:1;display:inline"/>
<path id="path16313" d="M 653.0625,143.62137 L 664.9375,143.62137 L 656.48169,215.79233 L 654.23169,215.79233 L 653.0625,143.62137 z " style="fill:#fa1c2c;fill-opacity:1;fill-rule:evenodd;stroke:#fa1c2c;stroke-width:1.00732613px;stroke-linecap:butt;stroke-linejoin:miter;stroke-opacity:1;display:inline"/>
<rect y="148.71196" x="105.86347" height="62.024097" width="543.17706" id="rect3064" style="fill:#fa1c2c;fill-opacity:1;stroke:#fa1c2c;stroke-width:11.05750275;stroke-miterlimit:4;stroke-dasharray:none;stroke-opacity:1;display:inline"/>
</g>
<path style="fill:#469951;fill-opacity:1;fill-rule:evenodd;stroke:#469951;stroke-width:0.76064599px;stroke-linecap:butt;stroke-linejoin:miter;stroke-opacity:1;display:inline" d="M 69.185264,387.05946 C 69.185264,387.05946 74.274213,393.26003 85.348991,389.3414 C 96.423769,385.42276 98.038901,381.65527 109.68966,380.40381 C 121.34042,379.15235 140.50602,391.204 151.71535,390.10205 C 162.92469,389.00009 173.06391,380.14693 184.42313,380.97429 C 195.78235,381.80166 203.30332,391.5883 218.46204,390.29221 C 233.62076,388.99611 234.02896,382.8101 248.3174,383.25623 C 262.60583,383.70237 264.95653,391.76596 280.83501,391.62334 C 296.7135,391.48072 295.57568,383.87801 312.0215,384.01688 C 328.46732,384.15575 330.85198,391.82133 343.20799,392.95447 C 355.56399,394.08761 363.27002,383.96934 380.6698,385.15785 C 398.06958,386.34636 397.54663,390.62499 409.00386,392.95447 C 420.46109,395.28395 426.49872,389.3414 426.49872,389.3414 L 425.35775,399.03964 C 421.683,400.68813 419.76729,402.11081 412.42677,402.84287 C 401.45635,402.12943 395.35768,395.3334 379.14851,394.66592 C 364.26219,394.00562 358.9295,402.2189 342.6375,402.46254 C 325.0022,400.97971 325.65716,394.50282 311.45101,394.09544 C 293.5713,395.39902 294.60755,401.78498 278.74324,402.6527 C 263.56318,401.26691 259.95208,393.58207 247.93707,394.2856 C 236.40044,393.96177 230.7526,400.55415 219.41285,400.94125 C 204.08528,401.49321 198.75431,391.88705 185.75426,391.8135 C 174.46227,391.17968 166.36805,399.68377 153.23665,399.80028 C 136.67073,398.44839 127.12114,391.13173 114.06338,390.48237 C 97.635204,391.26488 96.124812,395.04624 86.48996,398.65931 C 77.494583,400.79683 74.682756,397.62465 70.326233,395.80689 L 69.185264,387.05946 z " id="path12812"/>
<path style="fill:#469951;fill-opacity:1;fill-rule:evenodd;stroke:#469951;stroke-width:0.76064599px;stroke-linecap:butt;stroke-linejoin:miter;stroke-opacity:1;display:inline" d="M 86.48996,437.83258 L 417.56113,441.82597 L 375.34528,429.46548 L 339.40476,438.02274 L 307.45762,429.8458 L 274.94001,436.50145 L 247.74691,429.27531 L 219.98333,436.31129 L 181.57071,426.04257 L 151.52519,434.02935 L 108.16837,426.99338 L 86.48996,437.83258 z " id="path4951"/>
<path style="fill:#469951;fill-opacity:1;fill-rule:evenodd;stroke:#469951;stroke-width:0.76064599px;stroke-linecap:butt;stroke-linejoin:miter;stroke-opacity:1;display:inline" d="M 70.991798,407.07205 C 70.991798,407.07205 75.320102,413.27262 86.394879,409.35399 C 97.469657,405.43535 99.08479,401.66786 110.73555,400.4164 C 122.38631,399.16494 141.55191,411.21659 152.76124,410.11463 C 163.97058,409.01268 174.1098,400.15952 185.46902,400.98688 C 196.82824,401.81424 204.34921,411.60089 219.50793,410.3048 C 234.66665,409.0087 235.07485,402.82269 249.36328,403.26882 C 263.65172,403.71495 267.24791,412.71267 281.8809,411.63593 C 296.51389,410.55918 301.52564,403.32291 313.06739,404.02947 C 324.60913,404.73602 327.54154,413.24653 344.25387,412.96706 C 360.96621,412.68758 364.01624,403.89036 381.71569,405.17044 C 399.41514,406.45051 402.0311,411.74825 410.04975,412.96706 C 418.06841,414.18586 424.31873,409.83065 423.36106,409.73431 L 422.02993,420.19319 C 418.35517,421.84169 417.39027,421.74308 410.04975,422.47513 C 399.07933,421.76169 396.40357,415.34598 380.1944,414.67851 C 365.30808,414.01821 359.97538,422.23149 343.68339,422.47513 C 326.04809,420.9923 326.70305,414.51541 312.4969,414.10803 C 294.61719,415.41161 295.65344,421.79756 279.78912,422.66529 C 264.60906,421.2795 260.99797,413.59466 248.98296,414.29819 C 237.44633,413.97436 231.79849,420.56674 220.45874,420.95384 C 205.13116,421.5058 199.8002,411.89964 186.80015,411.82609 C 175.50816,411.19227 167.41394,419.69636 154.28253,419.81287 C 137.71662,418.46098 128.16702,411.14432 115.10927,410.49496 C 98.681092,411.27747 97.1707,415.05883 87.535848,418.6719 C 78.540471,420.80942 76.679452,417.8274 72.322928,416.00964 L 70.991798,407.07205 z " id="path13687"/>
<path style="fill:#469951;fill-opacity:1;fill-rule:evenodd;stroke:#469951;stroke-width:0.76064599px;stroke-linecap:butt;stroke-linejoin:miter;stroke-opacity:1;display:inline" d="M 73.939301,435.17032 L 82.05099,496.66565 L 246.98627,544.51318 L 414.32839,498.87442 L 420.03323,439.16371" id="path4074"/>
<path style="fill:#469951;fill-opacity:1;fill-rule:evenodd;stroke:#469951;stroke-width:0.76064599px;stroke-linecap:butt;stroke-linejoin:miter;stroke-opacity:1;display:inline" d="M 67.544497,379.54113 C 87.109095,387.3494 89.902986,373.55272 106.96566,371.46771 C 121.16308,370.64522 128.98597,379.07113 148.28284,381.02424 C 159.40744,380.59896 167.32818,373.26162 181.72791,372.00556 C 194.24201,372.31804 195.37726,379.18462 216.1126,381.14914 C 229.63572,380.11078 232.52795,374.92865 246.80872,372.54342 C 265.37426,373.49582 261.61855,380.2537 278.70548,382.06731 C 291.7448,382.68062 295.44711,374.19866 308.66239,374.69483 C 324.48551,375.29673 329.85316,382.98785 343.0853,383.8384 C 357.07722,384.75391 363.11493,376.00709 380.1975,375.23268 C 395.852,376.64375 402.79393,383.93082 412.81667,384.30544 C 418.54665,385.05482 422.53497,382.75638 426.26312,380.00254 L 459.80047,92.319413 L 40.271276,93.395126 L 67.544497,379.54113 z " id="path11862"/>
<rect style="fill:#fffd00;fill-opacity:1;fill-rule:evenodd;stroke:#000000;stroke-width:0.76064599px;stroke-linecap:butt;stroke-linejoin:miter;stroke-opacity:1" id="rect8932" width="31.186485" height="17.494858" x="319.81812" y="448.29147"/>
<path style="fill:none;fill-opacity:0.75;fill-rule:evenodd;stroke:#000000;stroke-width:5.85697412;stroke-linecap:butt;stroke-linejoin:miter;stroke-miterlimit:4;stroke-dasharray:none;stroke-opacity:1;display:inline" d="M 18.760844,14.986984 L 479.44483,15.061725 L 428.42129,508.01254 L 247.92535,557.57451 L 69.498383,506.3085 L 18.760844,14.986984 z " id="path1312"/>
<path style="fill:#ffffff;fill-opacity:1;fill-rule:evenodd;stroke:#ffffff;stroke-width:0.70488447px;stroke-linecap:butt;stroke-linejoin:miter;stroke-opacity:1;display:inline" d="M 22.411239,17.91242 L 476.06371,17.950658 L 474.82155,27.0698 L 23.377982,27.017475 L 22.411239,17.91242 z " id="path13690"/>
<text xml:space="preserve" style="font-size:64.38711548px;font-style:normal;font-variant:normal;font-weight:normal;font-stretch:normal;line-height:100%;writing-mode:lr-tb;text-anchor:middle;fill-opacity:1;fill-rule:nonzero;stroke-width:1px;stroke-linecap:butt;stroke-linejoin:miter;stroke-opacity:1;font-family:Kartika" x="264.80579" y="66.756546" id="text5714" transform="scale(0.940533,1.063227)"><tspan id="tspan5716" x="264.80579" y="66.756546" style="font-size:44px;font-style:normal;font-variant:normal;font-weight:bold;font-stretch:normal;line-height:100%;writing-mode:lr-tb;text-anchor:middle;fill:#faf51c;fill-opacity:1;fill-rule:nonzero;stroke:#faf51c;stroke-opacity:1;font-family:Myriad Web Pro">SUMATERA BARAT</tspan></text>
<path style="fill:#000000;fill-opacity:1;fill-rule:evenodd;stroke:#000000;stroke-width:0.76064599px;stroke-linecap:butt;stroke-linejoin:miter;stroke-opacity:1;display:inline" d="M 103.73851,299.93257 C 112.2546,303.46306 120.77068,303.815 129.28676,313.91688 L 133.51086,349.92633 C 148.64121,351.46192 159.66482,355.11754 167.47468,363.3998 L 325.33598,365.55124 C 335.06493,357.25408 346.90822,353.71422 359.48996,351.83586 L 365.67533,315.26152 C 371.80105,308.29937 382.10663,304.17241 390.95465,299.93257 L 103.73851,299.93257 z " id="path10987"/>
<path style="fill:#000000;fill-opacity:1;fill-rule:evenodd;stroke:#000000;stroke-width:0.76064599px;stroke-linecap:butt;stroke-linejoin:miter;stroke-opacity:1" d="M 92.981351,151.75271 C 101.74545,188.73167 115.51003,211.71564 147.84286,223.28781 L 149.9943,299.66364 L 105.08315,299.93257 L 101.58708,231.35568 L 92.981351,151.75271 z " id="path10110"/>
<rect style="fill:#000000;fill-opacity:1;fill-rule:evenodd;stroke:#000000;stroke-width:0.76064599px;stroke-linecap:butt;stroke-linejoin:miter;stroke-opacity:1;display:inline" id="rect1326" width="285.24225" height="75.303955" x="103.22417" y="224.66154" ry="0"/>
<g id="g3077" style="fill:#ffffff;fill-opacity:1;stroke:#ffffff;stroke-opacity:1;display:inline" transform="matrix(0.760646,0,0,0.760646,-38.25598,-81.14778)">
<rect y="402.17749" x="337.28995" height="13.081475" width="75.660423" id="rect4787" style="fill:#ffffff;fill-opacity:1;fill-rule:evenodd;stroke:#ffffff;stroke-width:1px;stroke-linecap:butt;stroke-linejoin:miter;stroke-opacity:1"/>
<path id="path5662" d="M 374.05949,319.79956 C 362.94539,360.81397 350.64011,386.34301 337.64349,402.8846 L 412.95036,402.53105 C 397.61013,386.65963 384.06374,360.17012 374.05949,319.79956 z " style="fill:#ffffff;fill-opacity:1;fill-rule:evenodd;stroke:#ffffff;stroke-width:1px;stroke-linecap:butt;stroke-linejoin:miter;stroke-opacity:1"/>
</g>
<path style="fill:#000000;fill-opacity:1;fill-rule:evenodd;stroke:#000000;stroke-width:0.76064599px;stroke-linecap:butt;stroke-linejoin:miter;stroke-opacity:1;display:inline" d="M 145.12891,153.42974 C 152.36928,182.51923 158.89644,211.04992 218.53125,224.93047 L 147.79117,225.69111 L 145.12891,153.42974 z " id="path6539"/>
<path style="fill:#000000;fill-opacity:1;fill-rule:evenodd;stroke:#000000;stroke-width:0.76064599px;stroke-linecap:butt;stroke-linejoin:miter;stroke-opacity:1" d="M 349.19132,153.3836 C 341.95095,182.47309 335.42379,211.00378 275.78898,224.88433 L 346.52906,225.64497 L 349.19132,153.3836 z " id="path7415"/>
<path style="fill:#ffffff;fill-opacity:1;fill-rule:evenodd;stroke:#ffffff;stroke-width:0.76064599px;stroke-linecap:butt;stroke-linejoin:miter;stroke-opacity:1" d="M 223.64025,243.21926 L 271.79052,243.1592 C 275.05518,253.45858 284.11029,259.59669 294.45945,265.15658 L 200.31555,265.05322 C 210.69705,259.14802 218.92648,252.10941 223.64025,243.21926 z " id="path4831"/>
<path style="fill:#ffffff;fill-opacity:1;fill-rule:evenodd;stroke:#ffffff;stroke-width:0.76064599px;stroke-linecap:butt;stroke-linejoin:miter;stroke-opacity:1" d="M 209.48622,273.97462 L 285.06721,273.9691 C 290.62543,282.47054 298.53749,289.74165 308.07441,296.16347 L 187.03726,296.1704 C 195.28135,289.67339 203.63124,283.30171 209.48622,273.97462 z " id="path5706"/>
<path style="fill:#d40000;fill-opacity:1;fill-rule:evenodd;stroke:#ad0909;stroke-width:0.76064509px;stroke-linecap:butt;stroke-linejoin:miter;stroke-opacity:1" d="M 131.96293,304.66372 L 359.38972,304.44807 L 355.04672,348.05438 C 341.49787,349.85781 328.88355,353.17962 320.32215,361.04191 L 171.2446,360.39311 C 162.26373,351.74624 150.51632,347.19551 137.45421,344.59127 L 131.96293,304.66372 z " id="path6581"/>
<path style="fill:#000000;fill-opacity:1;fill-rule:evenodd;stroke:#000000;stroke-width:0.80806321px;stroke-linecap:butt;stroke-linejoin:miter;stroke-opacity:1" d="M 136.99433,309.61081 L 139.92027,329.44691 L 185.17778,329.58204 L 185.29679,309.41134 L 136.99433,309.61081 z " id="path7458"/>
<path style="fill:#000000;fill-opacity:1;fill-rule:evenodd;stroke:#000000;stroke-width:0.80714661px;stroke-linecap:butt;stroke-linejoin:miter;stroke-opacity:1" d="M 354.21711,309.56192 L 351.91067,329.91269 L 306.64917,330.14695 L 306.31583,309.60732 L 354.21711,309.56192 z " id="path8333"/>
<rect style="fill:#000000;fill-opacity:1;fill-rule:evenodd;stroke:#000000;stroke-width:0.79135871px;stroke-linecap:butt;stroke-linejoin:miter;stroke-opacity:1" id="rect8335" width="110.26083" height="20.375927" x="192.71768" y="308.20541" transform="matrix(0.999989,4.756656e-3,-4.756656e-3,0.999989,0,0)"/>
<path style="fill:#000000;fill-opacity:1;fill-rule:evenodd;stroke:#000000;stroke-width:0.76064545px;stroke-linecap:butt;stroke-linejoin:miter;stroke-opacity:1" d="M 140.95515,334.62093 L 141.82831,341.21905 C 153.44941,343.54355 164.96598,347.86073 173.6778,356.20532 L 186.31817,356.20137 L 186.13833,334.5496 L 140.95515,334.62093 z " id="path9222"/>
<rect style="fill:#000000;fill-opacity:1;fill-rule:evenodd;stroke:#000000;stroke-width:0.81066287px;stroke-linecap:butt;stroke-linejoin:miter;stroke-opacity:1" id="rect10097" width="110.26067" height="21.382166" x="192.86845" y="333.72604" transform="matrix(0.99999,4.48163e-3,-5.018746e-3,0.999987,0,0)"/>
<path style="fill:#000000;fill-opacity:1;fill-rule:evenodd;stroke:#000000;stroke-width:0.76064545px;stroke-linecap:butt;stroke-linejoin:miter;stroke-opacity:1" d="M 351.72794,335.41123 L 351.14087,343.49538 C 339.53134,345.87698 328.32865,347.96772 319.65797,356.35505 L 307.01913,356.27878 L 306.94833,335.5662 L 351.72794,335.41123 z " id="path10099"/>
<path style="fill:#000000;fill-opacity:1;fill-rule:evenodd;stroke:#000000;stroke-width:0.76064599px;stroke-linecap:butt;stroke-linejoin:miter;stroke-opacity:1" d="M 403.32539,151.88717 C 394.5613,188.86613 380.79671,211.8501 348.46388,223.42227 L 346.31244,299.7981 L 391.22359,300.06703 L 394.71966,231.49014 L 403.32539,151.88717 z " id="path10985"/>
<rect style="fill:#efee0d;fill-opacity:1;fill-rule:evenodd;stroke:#000000;stroke-width:0.76064599px;stroke-linecap:butt;stroke-linejoin:miter;stroke-opacity:1" id="rect9807" width="30.42584" height="19.206312" x="140.30566" y="445.81937"/>
<path style="fill:none;fill-opacity:0.75;fill-rule:evenodd;stroke:#000000;stroke-width:3.66991305;stroke-linecap:butt;stroke-linejoin:miter;stroke-miterlimit:4;stroke-dasharray:none;stroke-opacity:1" d="M 170.30809,443.3262 L 170.68841,462.78132" id="path2322"/>
<path style="fill:#faf51c;fill-opacity:1;fill-rule:evenodd;stroke:#000000;stroke-width:3.42290711;stroke-linecap:butt;stroke-linejoin:round;stroke-miterlimit:4;stroke-dasharray:none;stroke-opacity:1;display:inline" d="M 146.46112,463.28986 L 146.51006,451.14737 C 153.23536,451.97685 160.99162,453.6589 168.84926,447.6457 C 170.4812,445.49764 173.34451,438.59006 160.22953,436.03431 C 149.78327,434.80202 141.26769,435.11428 133.98724,436.41463 C 125.85436,438.60105 122.02913,443.51623 120.48578,450.01118 C 120.30629,453.75102 120.05276,455.60498 120.70239,459.34482 C 128.9932,460.75349 136.99556,463.85656 146.46112,463.28986 z " id="path18936"/>
<path style="fill:#efee0d;fill-opacity:1;fill-rule:evenodd;stroke:#000000;stroke-width:3.42290711;stroke-linecap:butt;stroke-linejoin:miter;stroke-miterlimit:4;stroke-dasharray:none;stroke-opacity:1;display:inline" d="M 120.3907,458.85369 C 120.38609,469.79493 119.86875,490.38867 121.62675,492.8926 C 127.1895,501.01572 136.96129,504.85376 152.14767,504.87277 C 186.31088,501.595 224.46908,490.22238 242.56946,489.46969 C 263.79954,488.27343 303.67469,506.98218 341.6436,508.48584 C 359.09023,507.7616 364.59959,502.03908 369.7875,496.12534 L 370.16783,454.8603 C 364.23143,459.37777 358.4025,468.73843 341.26328,467.41096 C 300.59144,464.31648 280.90953,450.68767 245.04156,448.01448 C 209.2689,449.7763 198.22353,457.38868 175.34737,462.08643 C 157.2508,466.34168 137.36827,463.72893 120.3907,458.85369 z " id="path1447"/>
<path style="fill:#faf51c;fill-opacity:1;stroke:#faeb1c;stroke-width:11;stroke-miterlimit:4;stroke-dasharray:none;stroke-opacity:1;display:inline" id="path3943" d="M 389.17085,275.23665 L 379.73735,283.4948 L 381.19222,295.94757 L 370.42314,289.52768 L 359.02943,294.75947 L 361.80728,282.53361 L 353.31071,273.31426 L 365.79659,272.17815 L 371.93913,261.24849 L 376.87798,272.7722 L 389.17085,275.23665 z " transform="matrix(0.857504,-5.586298e-2,5.996248e-2,0.798878,-89.32157,-70.57201)"/>
<path style="fill:#faf51c;fill-opacity:1;fill-rule:evenodd;stroke:#000000;stroke-width:3.42290711;stroke-linecap:butt;stroke-linejoin:round;stroke-miterlimit:4;stroke-dasharray:none;stroke-opacity:1;display:inline" d="M 343.30634,467.53846 L 343.79526,453.64793 C 337.06996,454.4774 329.17924,454.68035 321.3216,448.66715 C 319.68965,446.51909 316.69187,441.22508 329.80686,438.66933 C 340.25312,437.43704 348.49977,437.88377 355.78022,439.18412 C 363.9131,441.37054 368.89282,445.38269 370.43617,451.87764 C 370.61566,455.61748 370.65595,454.61342 370.00633,458.35326 C 361.8322,463.53246 359.84061,467.54053 343.30634,467.53846 z " id="path6303"/>
<path style="fill:#efee0d;fill-opacity:1;fill-rule:evenodd;stroke:#000000;stroke-width:3.35150504;stroke-linecap:butt;stroke-linejoin:miter;stroke-miterlimit:4;stroke-dasharray:none;stroke-opacity:1;display:inline" d="M 319.64326,444.90442 L 319.96044,464.35954" id="path6305"/>
<text xml:space="preserve" style="font-size:30.42582703px;font-style:normal;font-variant:normal;font-weight:bold;font-stretch:normal;text-align:center;line-height:125%;writing-mode:lr-tb;text-anchor:middle;fill-opacity:1;stroke:none;stroke-width:1px;stroke-linecap:butt;stroke-linejoin:miter;stroke-opacity:1;font-family:Arial" x="136.08987" y="495.8295" id="text11648" transform="matrix(0.999966,-8.185315e-3,8.185315e-3,0.999966,0,0)"><tspan id="tspan11650" x="136.08987" y="495.8295" style="font-size:30.42582703px;font-style:normal;font-variant:normal;font-weight:bold;fill:#f02d2d;fill-opacity:1;fill-rule:nonzero;stroke:#f02d2d;stroke-opacity:1;font-family:Myriad Web Pro">T</tspan></text>
<text xml:space="preserve" style="font-size:30.42583084px;font-style:normal;font-variant:normal;font-weight:bold;font-stretch:normal;text-align:center;line-height:125%;writing-mode:lr-tb;text-anchor:middle;fill:#000000;fill-opacity:1;stroke:none;stroke-width:1px;stroke-linecap:butt;stroke-linejoin:miter;stroke-opacity:1;font-family:Myriad Web Pro" x="149.87567" y="497.21375" id="text11655" transform="matrix(0.999652,-2.639248e-2,2.639248e-2,0.999652,0,0)"><tspan id="tspan11657" x="149.87567" y="497.21375" style="font-size:30.42583084px;font-style:normal;font-variant:normal;font-weight:bold;fill:#f02d2d;fill-opacity:1;fill-rule:nonzero;stroke:#f02d2d;stroke-opacity:1;font-family:Myriad Web Pro">U</tspan></text>
<text xml:space="preserve" style="font-size:30.42586899px;font-style:normal;font-variant:normal;font-weight:bold;font-stretch:normal;text-align:center;line-height:125%;writing-mode:lr-tb;text-anchor:middle;fill:#000000;fill-opacity:1;stroke:none;stroke-width:1px;stroke-linecap:butt;stroke-linejoin:miter;stroke-opacity:1;font-family:Myriad Web Pro" x="147.01617" y="502.4054" id="text11659" transform="matrix(0.996902,-7.865281e-2,7.865281e-2,0.996902,0,0)"><tspan id="tspan11661" x="147.01617" y="502.4054" style="font-size:30.42585754px;font-style:normal;font-variant:normal;font-weight:bold;fill:#f02d2d;fill-opacity:1;fill-rule:nonzero;stroke:#f02d2d;stroke-opacity:1;font-family:Myriad Web Pro">A</tspan></text>
<text xml:space="preserve" style="font-size:30.42591476px;font-style:normal;font-variant:normal;font-weight:bold;font-stretch:normal;text-align:center;line-height:125%;writing-mode:lr-tb;text-anchor:middle;fill:#000000;fill-opacity:1;stroke:none;stroke-width:1px;stroke-linecap:butt;stroke-linejoin:miter;stroke-opacity:1;font-family:Myriad Web Pro" x="156.60426" y="504.79568" id="text11663" transform="matrix(0.994307,-0.106554,0.106554,0.994307,0,0)"><tspan id="tspan11665" x="156.60426" y="504.79568" style="font-size:30.42586517px;font-style:normal;font-variant:normal;font-weight:bold;fill:#f02d2d;fill-opacity:1;fill-rule:nonzero;stroke:#f02d2d;stroke-opacity:1;font-family:Myriad Web Pro">H</tspan></text>
<text xml:space="preserve" style="font-size:30.42584038px;font-style:normal;font-variant:normal;font-weight:bold;font-stretch:normal;text-align:center;line-height:125%;writing-mode:lr-tb;text-anchor:middle;fill:#000000;fill-opacity:1;stroke:none;stroke-width:1px;stroke-linecap:butt;stroke-linejoin:miter;stroke-opacity:1;font-family:Myriad Web Pro" x="241.20735" y="480.71805" id="text11676"><tspan id="tspan11678" x="241.20735" y="480.71805" style="font-size:30.42584038px;font-style:normal;font-variant:normal;font-weight:bold;fill:#f02d2d;fill-opacity:1;fill-rule:nonzero;stroke:#f02d2d;stroke-opacity:1;font-family:Myriad Web Pro">S</tspan></text>
<text xml:space="preserve" style="font-size:30.4258728px;font-style:normal;font-variant:normal;font-weight:bold;font-stretch:normal;text-align:center;line-height:125%;writing-mode:lr-tb;text-anchor:middle;fill:#000000;fill-opacity:1;stroke:none;stroke-width:1px;stroke-linecap:butt;stroke-linejoin:miter;stroke-opacity:1;font-family:Myriad Web Pro" x="315.61844" y="448.42371" id="text11680" transform="matrix(0.993132,0.117003,-0.117003,0.993132,0,0)"><tspan id="tspan11682" x="315.61844" y="448.42371" style="font-size:30.42585754px;font-style:normal;font-variant:normal;font-weight:bold;fill:#f02d2d;fill-opacity:1;fill-rule:nonzero;stroke:#f02d2d;stroke-opacity:1;font-family:Myriad Web Pro">A</tspan></text>
<text xml:space="preserve" style="font-size:30.4258461px;font-style:normal;font-variant:normal;font-weight:bold;font-stretch:normal;text-align:center;line-height:125%;writing-mode:lr-tb;text-anchor:middle;fill:#000000;fill-opacity:1;stroke:none;stroke-width:1px;stroke-linecap:butt;stroke-linejoin:miter;stroke-opacity:1;font-family:Myriad Web Pro" x="387.43771" y="407.64069" id="text11684" transform="matrix(0.972517,0.232832,-0.232832,0.972517,0,0)"><tspan id="tspan11686" x="387.43771" y="407.64069" style="font-size:30.42583656px;font-style:normal;font-variant:normal;font-weight:bold;fill:#f02d2d;fill-opacity:1;fill-rule:nonzero;stroke:#f02d2d;stroke-opacity:1;font-family:Myriad Web Pro">K</tspan></text>
<text xml:space="preserve" style="font-size:30.42586136px;font-style:normal;font-variant:normal;font-weight:bold;font-stretch:normal;text-align:center;line-height:125%;writing-mode:lr-tb;text-anchor:middle;fill:#000000;fill-opacity:1;stroke:none;stroke-width:1px;stroke-linecap:butt;stroke-linejoin:miter;stroke-opacity:1;font-family:Myriad Web Pro" x="405.79181" y="411.81982" id="text11688" transform="matrix(0.97494,0.22247,-0.22247,0.97494,0,0)"><tspan id="tspan11690" x="405.79181" y="411.81982" style="font-size:30.4258461px;font-style:normal;font-variant:normal;font-weight:bold;fill:#f02d2d;fill-opacity:1;fill-rule:nonzero;stroke:#f02d2d;stroke-opacity:1;font-family:Myriad Web Pro">A</tspan></text>
<text xml:space="preserve" style="font-size:30.42583084px;font-style:normal;font-variant:normal;font-weight:bold;font-stretch:normal;text-align:center;line-height:125%;writing-mode:lr-tb;text-anchor:middle;fill:#000000;fill-opacity:1;stroke:none;stroke-width:1px;stroke-linecap:butt;stroke-linejoin:miter;stroke-opacity:1;font-family:Myriad Web Pro" x="392.86197" y="444.20743" id="text11692" transform="matrix(0.989551,0.144181,-0.144181,0.989551,0,0)"><tspan id="tspan11694" x="392.86197" y="444.20743" style="font-size:30.42583084px;font-style:normal;font-variant:normal;font-weight:bold;fill:#f02d2d;fill-opacity:1;fill-rule:nonzero;stroke:#f02d2d;stroke-opacity:1;font-family:Myriad Web Pro">T</tspan></text>
<text xml:space="preserve" style="font-size:30.42584038px;font-style:normal;font-variant:normal;font-weight:bold;font-stretch:normal;text-align:center;line-height:125%;writing-mode:lr-tb;text-anchor:middle;fill:#000000;fill-opacity:1;stroke:none;stroke-width:1px;stroke-linecap:butt;stroke-linejoin:miter;stroke-opacity:1;font-family:Myriad Web Pro" x="346.62753" y="497.9295" id="text11696"><tspan id="tspan11698" x="346.62753" y="497.9295" style="font-size:30.42584038px;font-style:normal;font-variant:normal;font-weight:bold;fill:#f02d2d;fill-opacity:1;fill-rule:nonzero;stroke:#f02d2d;stroke-opacity:1;font-family:Myriad Web Pro">O</tspan></text>
</g>
</svg>